<mxfile host="65bd71144e">
    <diagram id="XVv77vLJ6xCtPW0qUYid" name="Page-1">
        <mxGraphModel dx="426" dy="571" grid="1" gridSize="10" guides="1" tooltips="1" connect="1" arrows="1" fold="1" page="1" pageScale="1" pageWidth="850" pageHeight="1100" math="0" shadow="0">
            <root>
                <mxCell id="0"/>
                <mxCell id="1" parent="0"/>
            </root>
        </mxGraphModel>
    </diagram>
    <diagram name="Use Case Diagram" id="use-case-diagram">
        <mxGraphModel dx="720" dy="571" grid="1" gridSize="10" guides="1" tooltips="1" connect="1" arrows="1" fold="1" page="1" pageScale="1" pageWidth="827" pageHeight="1169" math="0" shadow="0">
            <root>
                <mxCell id="0"/>
                <mxCell id="1" parent="0"/>
                <mxCell id="2" value="     Utilisateur" style="shape=umlActor;verticalLabelPosition=bottom;verticalAlign=top;" parent="1" vertex="1">
                    <mxGeometry x="60" y="100" width="30" height="60" as="geometry"/>
                </mxCell>
                <mxCell id="3" value="Gérer compte" style="ellipse;whiteSpace=wrap;html=1;aspect=fixed;labelPosition=center;verticalLabelPosition=middle;" parent="1" vertex="1">
                    <mxGeometry x="230" y="105" width="140" height="50" as="geometry"/>
                </mxCell>
                <mxCell id="-Ig01wVtwPmFdi3REyHD-12" style="edgeStyle=none;html=1;endArrow=block;endFill=0;" parent="1" source="4" target="3" edge="1">
                    <mxGeometry relative="1" as="geometry"/>
                </mxCell>
                <mxCell id="4" value="&lt;span style=&quot;color: rgb(0, 0, 0);&quot;&gt;Consulter compte&lt;/span&gt;" style="ellipse;whiteSpace=wrap;html=1;aspect=fixed;labelPosition=center;verticalLabelPosition=middle;" parent="1" vertex="1">
                    <mxGeometry x="240" y="190" width="120" height="40" as="geometry"/>
                </mxCell>
                <mxCell id="6" value="Supprimer compte" style="ellipse;whiteSpace=wrap;html=1;aspect=fixed;labelPosition=center;verticalLabelPosition=middle;" parent="1" vertex="1">
                    <mxGeometry x="170" y="290" width="140" height="40" as="geometry"/>
                </mxCell>
                <mxCell id="7" style="endArrow=none;html=1;" parent="1" source="2" target="3" edge="1">
                    <mxGeometry relative="1" as="geometry"/>
                </mxCell>
                <mxCell id="10" value="&amp;lt;&amp;lt;extend&amp;gt;&amp;gt;" style="dashed=1;endArrow=block;html=1;endFill=0;" parent="1" source="4" target="6" edge="1">
                    <mxGeometry relative="1" as="geometry"/>
                </mxCell>
                <mxCell id="-Ig01wVtwPmFdi3REyHD-13" value="Modifier compte" style="ellipse;whiteSpace=wrap;html=1;aspect=fixed;labelPosition=center;verticalLabelPosition=middle;" parent="1" vertex="1">
                    <mxGeometry x="330" y="290" width="140" height="40" as="geometry"/>
                </mxCell>
                <mxCell id="-Ig01wVtwPmFdi3REyHD-14" value="&amp;lt;&amp;lt;extend&amp;gt;&amp;gt;" style="dashed=1;endArrow=block;html=1;endFill=0;exitX=1;exitY=1;exitDx=0;exitDy=0;" parent="1" source="4" target="-Ig01wVtwPmFdi3REyHD-13" edge="1">
                    <mxGeometry relative="1" as="geometry">
                        <mxPoint x="448" y="230" as="sourcePoint"/>
                    </mxGeometry>
                </mxCell>
            </root>
        </mxGraphModel>
    </diagram>
    <diagram id="N2eVXLiL14E3vEFZhvzj" name="Page-3">
        <mxGraphModel dx="720" dy="571" grid="1" gridSize="10" guides="1" tooltips="1" connect="1" arrows="1" fold="1" page="1" pageScale="1" pageWidth="1600" pageHeight="1600" math="0" shadow="0">
            <root>
                <mxCell id="0"/>
                <mxCell id="1" parent="0"/>
                <mxCell id="title" value="Diagramme de séquence - Scénarios d&#39;authentification" style="text;html=1;fontSize=18;fontStyle=1;align=center;verticalAlign=top;whiteSpace=wrap;" vertex="1" parent="1">
                    <mxGeometry x="400" y="20" width="800" height="40" as="geometry"/>
                </mxCell>
                <mxCell id="user" value="User" style="shape=umlActor;verticalLabelPosition=bottom;verticalAlign=top;" vertex="1" parent="1">
                    <mxGeometry x="120" y="100" width="30" height="60" as="geometry"/>
                </mxCell>
                <mxCell id="ui" value="UI_S&#39;authentifier" style="swimlane;horizontal=0;startSize=20;" vertex="1" parent="1">
                    <mxGeometry x="320" y="80" width="80" height="1200" as="geometry"/>
                </mxCell>
                <mxCell id="c" value="C_S&#39;authentifier" style="swimlane;horizontal=0;startSize=20;" vertex="1" parent="1">
                    <mxGeometry x="600" y="80" width="80" height="1200" as="geometry"/>
                </mxCell>
                <mxCell id="userentity" value="UserEntity" style="swimlane;horizontal=0;startSize=20;" vertex="1" parent="1">
                    <mxGeometry x="880" y="80" width="80" height="1200" as="geometry"/>
                </mxCell>
                <mxCell id="loginGroup" value="Scénario Principal : Login" style="swimlane;horizontal=0;startSize=20;fillColor=#e1f5fe;strokeColor=#039be5;" vertex="1" parent="1">
                    <mxGeometry x="60" y="200" width="1200" height="300" as="geometry"/>
                </mxCell>
                <mxCell id="step1" value="saisir(email, password)" style="edgeStyle=orthogonalEdgeStyle;endArrow=block;html=1;" edge="1" parent="1" source="user" target="ui">
                    <mxGeometry relative="1" as="geometry"/>
                </mxCell>
            </root>
        </mxGraphModel>









































</mxfile>    </diagram>        </mxGraphModel>            </root>                </mxCell>                    <mxGeometry x="1500" y="600" width="350" height="320" as="geometry"/>                <mxCell id="alt2" value="alt Email introuvable&#10;UI --&gt; User: afficher 'Email non enregistré'&#10;else Email trouvée&#10;  C --&gt; User: envoyer_email_reset(lien)&#10;  User -&gt; UI: cliquer_lien(lien_reset)&#10;  UI --&gt; User: afficher_form_nouveau_mdp()&#10;  User -&gt; UI: saisir(nouveau_mdp, confirmer_mdp)&#10;  UI -&gt; C: resetPassword(nouveau_mdp, confirmer_mdp)&#10;  alt Mots de passe non identiques&#10;    UI --&gt; User: afficher 'Les mots de passe ne correspondent pas'&#10;  else Mots de passe valides&#10;    UI --&gt; User: afficher_dashboard()&#10;  end&#10;end" style="note;html=1;whiteSpace=wrap;" parent="1" vertex="1">                <!-- Alt/Else/End blocks for Mot de passe oublié -->                </mxCell>                    <mxGeometry relative="1" as="geometry"/>                <mxCell id="altstep5" value="select(email)" style="edgeStyle=orthogonalEdgeStyle;endArrow=block;html=1;" parent="1" source="c" target="userentity" edge="1">                </mxCell>                    <mxGeometry relative="1" as="geometry"/>                <mxCell id="altstep4" value="requestPasswordReset(email)" style="edgeStyle=orthogonalEdgeStyle;endArrow=block;html=1;" parent="1" source="ui" target="c" edge="1">                </mxCell>                    <mxGeometry relative="1" as="geometry"/>                <mxCell id="altstep3" value="saisir(email)" style="edgeStyle=orthogonalEdgeStyle;endArrow=block;html=1;" parent="1" source="user" target="ui" edge="1">                </mxCell>                    <mxGeometry relative="1" as="geometry"/>                <mxCell id="altstep2" value="afficher_form_demande_email()" style="edgeStyle=orthogonalEdgeStyle;endArrow=block;dashed=1;html=1;" parent="1" source="ui" target="user" edge="1">                </mxCell>                    <mxGeometry relative="1" as="geometry"/>                <mxCell id="altstep1" value="cliquer_lien('Mot de passe oublié')" style="edgeStyle=orthogonalEdgeStyle;endArrow=block;html=1;" parent="1" source="user" target="ui" edge="1">                <!-- Alt Steps -->                </mxCell>                    <mxGeometry x="60" y="550" width="1400" height="400" as="geometry"/>                <mxCell id="altGroup" value="Scénario Alternatif : Mot de passe oublié" style="swimlane;horizontal=0;startSize=20;fillColor=#fff3e0;strokeColor=#fb8c00;" parent="1" vertex="1">                <!-- Alternative Scenario Group -->                </mxCell>                    <mxGeometry x="1300" y="220" width="280" height="260" as="geometry"/>                <mxCell id="alt1" value="alt Email/mot de passe invalides&#10;UI --&gt; User: afficher 'Utilisateur introuvable'&#10;else Identifiants valides&#10;  alt 2FA activée&#10;    UI --&gt; User: afficher 'Entrez votre token 2FA'&#10;    User -&gt; UI: saisir(token)&#10;    UI -&gt; C: verifierToken(token)&#10;    alt Token valide&#10;      UI --&gt; User: afficher_dashboard()&#10;    else Token invalide&#10;      UI --&gt; User: afficher 'Token 2FA invalide'&#10;    end&#10;  else 2FA non activée&#10;    UI --&gt; User: afficher_dashboard()&#10;  end&#10;end" style="note;html=1;whiteSpace=wrap;" parent="1" vertex="1">                <!-- Alt/Else/End blocks for Login -->                </mxCell>                    <mxGeometry relative="1" as="geometry"/>                <mxCell id="step4" value="select(email)" style="edgeStyle=orthogonalEdgeStyle;endArrow=block;html=1;" parent="1" source="c" target="userentity" edge="1">                </mxCell>                    <mxGeometry relative="1" as="geometry"/>                <mxCell id="step3" value="verifier(email, password)" style="edgeStyle=orthogonalEdgeStyle;endArrow=block;html=1;" parent="1" source="ui" target="c" edge="1">                </mxCell>                    <mxGeometry relative="1" as="geometry"/>                <mxCell id="step2" value="cliquer_btn_login()" style="edgeStyle=orthogonalEdgeStyle;endArrow=block;html=1;" parent="1" source="user" target="ui" edge="1">    </diagram>
</mxfile>